<?xml version="1.0" encoding="UTF-8" standalone="no"?>
<!DOCTYPE svg PUBLIC "-//W3C//DTD SVG 1.1//EN"
 "http://www.w3.org/Graphics/SVG/1.1/DTD/svg11.dtd">
<!-- Generated by graphviz version 2.43.0 (0)
 -->
<!-- Title: %3 Pages: 1 -->
<svg width="957pt" height="757pt"
 viewBox="0.00 0.00 957.49 756.84" xmlns="http://www.w3.org/2000/svg" xmlns:xlink="http://www.w3.org/1999/xlink">
<g id="graph0" class="graph" transform="scale(1 1) rotate(0) translate(4 752.84)">
<title>%3</title>
<polygon fill="white" stroke="transparent" points="-4,4 -4,-752.84 953.49,-752.84 953.49,4 -4,4"/>
<!-- mu -->
<g id="node1" class="node">
<title>mu</title>
<ellipse fill="none" stroke="black" cx="25.35" cy="-683.2" rx="25.2" ry="25.2"/>
<text text-anchor="middle" x="25.35" y="-679.5" font-family="Times,serif" font-size="14.00">mu</text>
</g>
<!-- sim -->
<g id="node3" class="node">
<title>sim</title>
<ellipse fill="#cccccc" stroke="black" cx="66.35" cy="-494.46" rx="27.1" ry="27.1"/>
<text text-anchor="middle" x="66.35" y="-490.76" font-family="Times,serif" font-size="14.00">sim</text>
</g>
<!-- mu&#45;&gt;sim -->
<g id="edge1" class="edge">
<title>mu&#45;&gt;sim</title>
<path fill="none" stroke="black" d="M30.62,-658.17C37.7,-625.93 50.32,-568.44 58.51,-531.14"/>
<polygon fill="black" stroke="black" points="61.97,-531.71 60.7,-521.2 55.13,-530.21 61.97,-531.71"/>
</g>
<!-- sigma -->
<g id="node2" class="node">
<title>sigma</title>
<ellipse fill="none" stroke="black" cx="107.35" cy="-683.2" rx="38.19" ry="38.19"/>
<text text-anchor="middle" x="107.35" y="-679.5" font-family="Times,serif" font-size="14.00">sigma</text>
</g>
<!-- sigma&#45;&gt;sim -->
<g id="edge2" class="edge">
<title>sigma&#45;&gt;sim</title>
<path fill="none" stroke="black" d="M99.25,-645.31C91.98,-612.22 81.39,-563.97 74.2,-531.23"/>
<polygon fill="black" stroke="black" points="77.56,-530.2 72,-521.18 70.72,-531.7 77.56,-530.2"/>
</g>
<!-- S1 -->
<g id="node4" class="node">
<title>S1</title>
<ellipse fill="#cccccc" stroke="black" cx="35.35" cy="-284.93" rx="23" ry="23"/>
<text text-anchor="middle" x="35.35" y="-281.23" font-family="Times,serif" font-size="14.00">S1</text>
</g>
<!-- sim&#45;&gt;S1 -->
<g id="edge3" class="edge">
<title>sim&#45;&gt;S1</title>
<path fill="none" stroke="black" d="M62.42,-467.18C56.73,-429.05 46.19,-358.5 40.07,-317.57"/>
<polygon fill="black" stroke="black" points="43.52,-316.97 38.58,-307.59 36.6,-318 43.52,-316.97"/>
</g>
<!-- S2 -->
<g id="node5" class="node">
<title>S2</title>
<ellipse fill="#cccccc" stroke="black" cx="98.35" cy="-284.93" rx="23" ry="23"/>
<text text-anchor="middle" x="98.35" y="-281.23" font-family="Times,serif" font-size="14.00">S2</text>
</g>
<!-- sim&#45;&gt;S2 -->
<g id="edge4" class="edge">
<title>sim&#45;&gt;S2</title>
<path fill="none" stroke="black" d="M70.4,-467.18C76.28,-429.05 87.16,-358.5 93.47,-317.57"/>
<polygon fill="black" stroke="black" points="96.94,-318.01 95.01,-307.59 90.02,-316.94 96.94,-318.01"/>
</g>
<!-- d -->
<g id="node6" class="node">
<title>d</title>
<ellipse fill="none" stroke="black" cx="67.35" cy="-81.24" rx="18" ry="18"/>
<text text-anchor="middle" x="67.35" y="-77.54" font-family="Times,serif" font-size="14.00">d</text>
</g>
<!-- S1&#45;&gt;d -->
<g id="edge5" class="edge">
<title>S1&#45;&gt;d</title>
<path fill="none" stroke="black" d="M38.77,-262.34C44.65,-225.31 56.64,-149.75 63.06,-109.27"/>
<polygon fill="black" stroke="black" points="66.53,-109.74 64.64,-99.31 59.62,-108.64 66.53,-109.74"/>
</g>
<!-- S2&#45;&gt;d -->
<g id="edge6" class="edge">
<title>S2&#45;&gt;d</title>
<path fill="none" stroke="black" d="M95.03,-262.34C89.34,-225.31 77.72,-149.75 71.5,-109.27"/>
<polygon fill="black" stroke="black" points="74.95,-108.67 69.97,-99.31 68.03,-109.73 74.95,-108.67"/>
</g>
<!-- _prior_9a96 -->
<g id="node7" class="node">
<title>_prior_9a96</title>
<ellipse fill="none" stroke="black" cx="332.35" cy="-683.2" rx="65.79" ry="65.79"/>
<text text-anchor="middle" x="332.35" y="-679.5" font-family="Times,serif" font-size="14.00">_prior_9a96</text>
</g>
<!-- _simulator_400e -->
<g id="node9" class="node">
<title>_simulator_400e</title>
<ellipse fill="#cccccc" stroke="black" cx="369.35" cy="-494.46" rx="87.18" ry="87.18"/>
<text text-anchor="middle" x="369.35" y="-490.76" font-family="Times,serif" font-size="14.00">_simulator_400e</text>
</g>
<!-- _prior_9a96&#45;&gt;_simulator_400e -->
<g id="edge7" class="edge">
<title>_prior_9a96&#45;&gt;_simulator_400e</title>
<path fill="none" stroke="black" d="M344.93,-618.72C346.75,-609.54 348.65,-599.92 350.56,-590.29"/>
<polygon fill="black" stroke="black" points="354.04,-590.75 352.55,-580.26 347.17,-589.39 354.04,-590.75"/>
</g>
<!-- _prior_f596 -->
<g id="node8" class="node">
<title>_prior_f596</title>
<ellipse fill="none" stroke="black" cx="479.35" cy="-683.2" rx="63.89" ry="63.89"/>
<text text-anchor="middle" x="479.35" y="-679.5" font-family="Times,serif" font-size="14.00">_prior_f596</text>
</g>
<!-- _prior_f596&#45;&gt;_simulator_400e -->
<g id="edge8" class="edge">
<title>_prior_f596&#45;&gt;_simulator_400e</title>
<path fill="none" stroke="black" d="M447.38,-627.94C438.31,-612.53 428.21,-595.39 418.37,-578.69"/>
<polygon fill="black" stroke="black" points="421.35,-576.85 413.26,-570.01 415.32,-580.4 421.35,-576.85"/>
</g>
<!-- _summary_d975 -->
<g id="node10" class="node">
<title>_summary_d975</title>
<ellipse fill="#cccccc" stroke="black" cx="225.35" cy="-284.93" rx="86.38" ry="86.38"/>
<text text-anchor="middle" x="225.35" y="-281.23" font-family="Times,serif" font-size="14.00">_summary_d975</text>
</g>
<!-- _simulator_400e&#45;&gt;_summary_d975 -->
<g id="edge9" class="edge">
<title>_simulator_400e&#45;&gt;_summary_d975</title>
<path fill="none" stroke="black" d="M319.99,-422.33C307.16,-403.83 293.25,-383.79 280.15,-364.91"/>
<polygon fill="black" stroke="black" points="282.97,-362.84 274.39,-356.61 277.22,-366.83 282.97,-362.84"/>
</g>
<!-- _summary_6b5d -->
<g id="node11" class="node">
<title>_summary_6b5d</title>
<ellipse fill="#cccccc" stroke="black" cx="416.35" cy="-284.93" rx="86.38" ry="86.38"/>
<text text-anchor="middle" x="416.35" y="-281.23" font-family="Times,serif" font-size="14.00">_summary_6b5d</text>
</g>
<!-- _simulator_400e&#45;&gt;_summary_6b5d -->
<g id="edge10" class="edge">
<title>_simulator_400e&#45;&gt;_summary_6b5d</title>
<path fill="none" stroke="black" d="M388.4,-409.35C390.63,-399.49 392.92,-389.38 395.18,-379.41"/>
<polygon fill="black" stroke="black" points="398.63,-380.01 397.42,-369.49 391.8,-378.47 398.63,-380.01"/>
</g>
<!-- _distance_2a41 -->
<g id="node12" class="node">
<title>_distance_2a41</title>
<ellipse fill="none" stroke="black" cx="320.35" cy="-81.24" rx="81.49" ry="81.49"/>
<text text-anchor="middle" x="320.35" y="-77.54" font-family="Times,serif" font-size="14.00">_distance_2a41</text>
</g>
<!-- _summary_d975&#45;&gt;_distance_2a41 -->
<g id="edge11" class="edge">
<title>_summary_d975&#45;&gt;_distance_2a41</title>
<path fill="none" stroke="black" d="M261.81,-206.53C268.33,-192.68 275.15,-178.2 281.73,-164.23"/>
<polygon fill="black" stroke="black" points="284.92,-165.67 286.02,-155.13 278.59,-162.68 284.92,-165.67"/>
</g>
<!-- _summary_6b5d&#45;&gt;_distance_2a41 -->
<g id="edge12" class="edge">
<title>_summary_6b5d&#45;&gt;_distance_2a41</title>
<path fill="none" stroke="black" d="M379.51,-206.53C372.87,-192.59 365.93,-178.01 359.24,-163.95"/>
<polygon fill="black" stroke="black" points="362.34,-162.32 354.88,-154.8 356.02,-165.33 362.34,-162.32"/>
</g>
<!-- _prior_8336 -->
<g id="node13" class="node">
<title>_prior_8336</title>
<ellipse fill="none" stroke="black" cx="668.35" cy="-683.2" rx="65.79" ry="65.79"/>
<text text-anchor="middle" x="668.35" y="-679.5" font-family="Times,serif" font-size="14.00">_prior_8336</text>
</g>
<!-- _simulator_0c32 -->
<g id="node15" class="node">
<title>_simulator_0c32</title>
<ellipse fill="#cccccc" stroke="black" cx="724.35" cy="-494.46" rx="86.38" ry="86.38"/>
<text text-anchor="middle" x="724.35" y="-490.76" font-family="Times,serif" font-size="14.00">_simulator_0c32</text>
</g>
<!-- _prior_8336&#45;&gt;_simulator_0c32 -->
<g id="edge13" class="edge">
<title>_prior_8336&#45;&gt;_simulator_0c32</title>
<path fill="none" stroke="black" d="M686.99,-620.02C690.14,-609.51 693.47,-598.42 696.79,-587.35"/>
<polygon fill="black" stroke="black" points="700.18,-588.22 699.7,-577.64 693.48,-586.21 700.18,-588.22"/>
</g>
<!-- _prior_ff70 -->
<g id="node14" class="node">
<title>_prior_ff70</title>
<ellipse fill="none" stroke="black" cx="813.35" cy="-683.2" rx="61.19" ry="61.19"/>
<text text-anchor="middle" x="813.35" y="-679.5" font-family="Times,serif" font-size="14.00">_prior_ff70</text>
</g>
<!-- _prior_ff70&#45;&gt;_simulator_0c32 -->
<g id="edge14" class="edge">
<title>_prior_ff70&#45;&gt;_simulator_0c32</title>
<path fill="none" stroke="black" d="M787.37,-627.69C780.55,-613.38 773.02,-597.59 765.62,-582.05"/>
<polygon fill="black" stroke="black" points="768.74,-580.46 761.27,-572.94 762.42,-583.47 768.74,-580.46"/>
</g>
<!-- _summary_fea4 -->
<g id="node16" class="node">
<title>_summary_fea4</title>
<ellipse fill="#cccccc" stroke="black" cx="678.35" cy="-284.93" rx="83.39" ry="83.39"/>
<text text-anchor="middle" x="678.35" y="-281.23" font-family="Times,serif" font-size="14.00">_summary_fea4</text>
</g>
<!-- _simulator_0c32&#45;&gt;_summary_fea4 -->
<g id="edge15" class="edge">
<title>_simulator_0c32&#45;&gt;_summary_fea4</title>
<path fill="none" stroke="black" d="M705.84,-409.95C703.37,-398.8 700.82,-387.32 698.33,-376.06"/>
<polygon fill="black" stroke="black" points="701.73,-375.25 696.15,-366.24 694.9,-376.76 701.73,-375.25"/>
</g>
<!-- _summary_ac51 -->
<g id="node17" class="node">
<title>_summary_ac51</title>
<ellipse fill="#cccccc" stroke="black" cx="864.35" cy="-284.93" rx="85.29" ry="85.29"/>
<text text-anchor="middle" x="864.35" y="-281.23" font-family="Times,serif" font-size="14.00">_summary_ac51</text>
</g>
<!-- _simulator_0c32&#45;&gt;_summary_ac51 -->
<g id="edge16" class="edge">
<title>_simulator_0c32&#45;&gt;_summary_ac51</title>
<path fill="none" stroke="black" d="M772.33,-422.33C784.95,-403.63 798.63,-383.35 811.49,-364.29"/>
<polygon fill="black" stroke="black" points="814.45,-366.16 817.14,-355.91 808.64,-362.24 814.45,-366.16"/>
</g>
<!-- _distance_29c8 -->
<g id="node18" class="node">
<title>_distance_29c8</title>
<ellipse fill="none" stroke="black" cx="771.35" cy="-81.24" rx="81.49" ry="81.49"/>
<text text-anchor="middle" x="771.35" y="-77.54" font-family="Times,serif" font-size="14.00">_distance_29c8</text>
</g>
<!-- _summary_fea4&#45;&gt;_distance_29c8 -->
<g id="edge17" class="edge">
<title>_summary_fea4&#45;&gt;_distance_29c8</title>
<path fill="none" stroke="black" d="M712.85,-209.11C719.57,-194.54 726.65,-179.18 733.47,-164.39"/>
<polygon fill="black" stroke="black" points="736.67,-165.8 737.68,-155.26 730.31,-162.87 736.67,-165.8"/>
</g>
<!-- _summary_ac51&#45;&gt;_distance_29c8 -->
<g id="edge18" class="edge">
<title>_summary_ac51&#45;&gt;_distance_29c8</title>
<path fill="none" stroke="black" d="M829.06,-207.39C822.61,-193.41 815.85,-178.76 809.33,-164.61"/>
<polygon fill="black" stroke="black" points="812.45,-163.01 805.08,-155.4 806.09,-165.94 812.45,-163.01"/>
</g>
</g>
</svg>
