<?xml version="1.0" encoding="UTF-8" standalone="no"?>
<!DOCTYPE svg PUBLIC "-//W3C//DTD SVG 1.1//EN"
 "http://www.w3.org/Graphics/SVG/1.1/DTD/svg11.dtd">
<!-- Generated by graphviz version 2.43.0 (0)
 -->
<!-- Title: %3 Pages: 1 -->
<svg width="154pt" height="329pt"
 viewBox="0.00 0.00 153.69 328.78" xmlns="http://www.w3.org/2000/svg" xmlns:xlink="http://www.w3.org/1999/xlink">
<g id="graph0" class="graph" transform="scale(1 1) rotate(0) translate(4 324.78)">
<title>%3</title>
<polygon fill="white" stroke="transparent" points="-4,4 -4,-324.78 149.69,-324.78 149.69,4 -4,4"/>
<!-- mu -->
<g id="node1" class="node">
<title>mu</title>
<ellipse fill="none" stroke="black" cx="25.35" cy="-282.44" rx="25.2" ry="25.2"/>
<text text-anchor="middle" x="25.35" y="-278.74" font-family="Times,serif" font-size="14.00">mu</text>
</g>
<!-- sim -->
<g id="node3" class="node">
<title>sim</title>
<ellipse fill="#cccccc" stroke="black" cx="66.35" cy="-180.79" rx="27.1" ry="27.1"/>
<text text-anchor="middle" x="66.35" y="-177.09" font-family="Times,serif" font-size="14.00">sim</text>
</g>
<!-- mu&#45;&gt;sim -->
<g id="edge1" class="edge">
<title>mu&#45;&gt;sim</title>
<path fill="none" stroke="black" d="M34.65,-258.83C39.87,-246.14 46.49,-230.05 52.33,-215.86"/>
<polygon fill="black" stroke="black" points="55.65,-216.99 56.22,-206.41 49.18,-214.32 55.65,-216.99"/>
</g>
<!-- sigma -->
<g id="node2" class="node">
<title>sigma</title>
<ellipse fill="none" stroke="black" cx="107.35" cy="-282.44" rx="38.19" ry="38.19"/>
<text text-anchor="middle" x="107.35" y="-278.74" font-family="Times,serif" font-size="14.00">sigma</text>
</g>
<!-- sigma&#45;&gt;sim -->
<g id="edge2" class="edge">
<title>sigma&#45;&gt;sim</title>
<path fill="none" stroke="black" d="M93.01,-246.59C88.92,-236.65 84.47,-225.84 80.4,-215.95"/>
<polygon fill="black" stroke="black" points="83.53,-214.35 76.49,-206.43 77.05,-217.01 83.53,-214.35"/>
</g>
<!-- S1 -->
<g id="node4" class="node">
<title>S1</title>
<ellipse fill="#cccccc" stroke="black" cx="35.35" cy="-94.75" rx="23" ry="23"/>
<text text-anchor="middle" x="35.35" y="-91.05" font-family="Times,serif" font-size="14.00">S1</text>
</g>
<!-- sim&#45;&gt;S1 -->
<g id="edge3" class="edge">
<title>sim&#45;&gt;S1</title>
<path fill="none" stroke="black" d="M57.21,-155.03C53.85,-145.9 50,-135.46 46.47,-125.91"/>
<polygon fill="black" stroke="black" points="49.7,-124.54 42.95,-116.37 43.13,-126.96 49.7,-124.54"/>
</g>
<!-- S2 -->
<g id="node5" class="node">
<title>S2</title>
<ellipse fill="#cccccc" stroke="black" cx="98.35" cy="-94.75" rx="23" ry="23"/>
<text text-anchor="middle" x="98.35" y="-91.05" font-family="Times,serif" font-size="14.00">S2</text>
</g>
<!-- sim&#45;&gt;S2 -->
<g id="edge4" class="edge">
<title>sim&#45;&gt;S2</title>
<path fill="none" stroke="black" d="M75.78,-155.03C79.25,-145.9 83.23,-135.46 86.86,-125.91"/>
<polygon fill="black" stroke="black" points="90.21,-126.96 90.5,-116.37 83.67,-124.47 90.21,-126.96"/>
</g>
<!-- d -->
<g id="node6" class="node">
<title>d</title>
<ellipse fill="none" stroke="black" cx="66.35" cy="-18" rx="18" ry="18"/>
<text text-anchor="middle" x="66.35" y="-14.3" font-family="Times,serif" font-size="14.00">d</text>
</g>
<!-- S1&#45;&gt;d -->
<g id="edge5" class="edge">
<title>S1&#45;&gt;d</title>
<path fill="none" stroke="black" d="M43.82,-73.32C47.54,-64.34 51.96,-53.7 55.89,-44.23"/>
<polygon fill="black" stroke="black" points="59.16,-45.48 59.75,-34.9 52.69,-42.79 59.16,-45.48"/>
</g>
<!-- S2&#45;&gt;d -->
<g id="edge6" class="edge">
<title>S2&#45;&gt;d</title>
<path fill="none" stroke="black" d="M89.6,-73.32C85.76,-64.34 81.2,-53.7 77.15,-44.23"/>
<polygon fill="black" stroke="black" points="80.31,-42.71 73.15,-34.9 73.87,-45.47 80.31,-42.71"/>
</g>
</g>
</svg>
